<?xml version="1.0" encoding="utf-8"?>
<svg xmlns="http://www.w3.org/2000/svg" viewBox="0 0 24 24" width="192" height="192">
  <path d="M21.997,7.974c0.057-1.01-0.655-1.937-1.659-2.102C16.166,5.189,16.487,2,12,2S7.834,5.189,3.662,5.872C2.659,6.036,1.946,6.963,2.003,7.974C2.433,15.604,5.502,19.229,12,22C18.498,19.229,21.567,15.604,21.997,7.974z" opacity=".35" fill="#FFFFFF" />
  <path d="M12,7c-2.761,0-5,2.239-5,5s2.239,5,5,5s5-2.239,5-5S14.761,7,12,7z M12,15c-1.657,0-3-1.343-3-3s1.343-3,3-3s3,1.343,3,3S13.657,15,12,15z" fill="#FFFFFF" />
  <rect width="8.485" height="2" x="7.758" y="10.999" transform="rotate(-45.001 12 12)" fill="#FFFFFF" />
</svg>