<?xml version="1.0" encoding="utf-8"?>
<svg xmlns="http://www.w3.org/2000/svg" viewBox="0 0 32 32" width="512" height="512">
  <path d="M16 3.90625L15.59375 4.09375L4.59375 9.09375L4 9.34375L4 28L15 28L15 22L17 22L17 28L28 28L28 9.34375L27.40625 9.09375L16.40625 4.09375 Z M 16 6.09375L26 10.625L26 26L19 26L19 20L13 20L13 26L6 26L6 10.625 Z M 8 12L8 14L12 14L12 12 Z M 14 12L14 14L18 14L18 12 Z M 20 12L20 14L24 14L24 12 Z M 8 16L8 18L12 18L12 16 Z M 14 16L14 18L18 18L18 16 Z M 20 16L20 18L24 18L24 16 Z M 8 20L8 22L12 22L12 20 Z M 20 20L20 22L24 22L24 20Z" fill="#FFFFFF" />
</svg>